# xmcd
#
# Track frame offsets:
# 150
# 19372
# 36349
# 56547
# 78628
# 96340
# 113766
# 133186
# 154618
# 172285
# 184534
#
# Disc length: 2673 seconds
#
# Revision: 1
# Processed by: cddbd v1.5.1PL0 Copyright (c) Steve Scherf et al.
# Submitted via: CedeCatalogueitor 2.6.0.6 http://personales.ya.com/cdcatalogueitor
#
DISCID=960a6f0b
DTITLE=Tommy Castro - Soul Shaker
DYEAR=2005
DGENRE=
TTITLE0=Just Like Me
TTITLE1=Let's Give Love A Try
TTITLE2=Anytime Soon
TTITLE3=What You Gonna' Do Now?
TTITLE4=The Next Right Thing
TTITLE5=Soul Shaker
TTITLE6=No One Left To Lie To
TTITLE7=Wake Up Call
TTITLE8=The Holdin' On
TTITLE9=Take Me Off The Road
TTITLE10=The Crossanovabig Love
EXTD=
EXTT0=
EXTT1=
EXTT2=
EXTT3=
EXTT4=
EXTT5=
EXTT6=
EXTT7=
EXTT8=
EXTT9=
EXTT10=
PLAYORDER=
